<mxfile host="65bd71144e">
    <diagram name="Page-1" id="2ca16b54-16f6-2749-3443-fa8db7711227">
        <mxGraphModel dx="1253" dy="710" grid="0" gridSize="10" guides="1" tooltips="1" connect="1" arrows="1" fold="1" page="1" pageScale="1" pageWidth="1169" pageHeight="827" background="none" math="0" shadow="0">
            <root>
                <mxCell id="0"/>
                <mxCell id="1" parent="0"/>
                <mxCell id="2ed32ef02a7f4228-8" value="&lt;div style=&quot;box-sizing: border-box ; width: 100% ; background: #e4e4e4 ; padding: 2px&quot;&gt;user&lt;/div&gt;&lt;table style=&quot;width: 100% ; font-size: 1em&quot; cellpadding=&quot;2&quot; cellspacing=&quot;0&quot;&gt;&lt;tbody&gt;&lt;tr&gt;&lt;td&gt;PK&lt;/td&gt;&lt;td&gt;username&lt;/td&gt;&lt;/tr&gt;&lt;tr&gt;&lt;td&gt;&lt;br&gt;&lt;/td&gt;&lt;td&gt;password&lt;/td&gt;&lt;/tr&gt;&lt;tr&gt;&lt;td&gt;&lt;/td&gt;&lt;td&gt;user_type&lt;/td&gt;&lt;/tr&gt;&lt;tr&gt;&lt;td&gt;&lt;br&gt;&lt;/td&gt;&lt;td&gt;access_type&lt;br&gt;&lt;/td&gt;&lt;/tr&gt;&lt;tr&gt;&lt;td&gt;&lt;br&gt;&lt;/td&gt;&lt;td&gt;full_name&lt;br&gt;&lt;/td&gt;&lt;/tr&gt;&lt;tr&gt;&lt;td&gt;&lt;br&gt;&lt;/td&gt;&lt;td&gt;profile_picture&lt;br&gt;&lt;/td&gt;&lt;/tr&gt;&lt;tr&gt;&lt;td&gt;&lt;br&gt;&lt;/td&gt;&lt;td&gt;profession&lt;br&gt;&lt;/td&gt;&lt;/tr&gt;&lt;tr&gt;&lt;td&gt;&lt;br&gt;&lt;/td&gt;&lt;td&gt;email&lt;/td&gt;&lt;/tr&gt;&lt;tr&gt;&lt;td&gt;&lt;br&gt;&lt;/td&gt;&lt;td&gt;bio&lt;br&gt;&lt;/td&gt;&lt;/tr&gt;&lt;tr&gt;&lt;td&gt;&lt;br&gt;&lt;/td&gt;&lt;td&gt;overall_rating&lt;br&gt;&lt;/td&gt;&lt;/tr&gt;&lt;tr&gt;&lt;td&gt;&lt;br&gt;&lt;/td&gt;&lt;td&gt;&lt;br&gt;&lt;/td&gt;&lt;/tr&gt;&lt;tr&gt;&lt;td&gt;&lt;br&gt;&lt;/td&gt;&lt;td&gt;&lt;br&gt;&lt;/td&gt;&lt;/tr&gt;&lt;tr&gt;&lt;td&gt;&lt;br&gt;&lt;/td&gt;&lt;td&gt;&lt;br&gt;&lt;/td&gt;&lt;/tr&gt;&lt;tr&gt;&lt;td&gt;&lt;br&gt;&lt;/td&gt;&lt;td&gt;&lt;br&gt;&lt;/td&gt;&lt;/tr&gt;&lt;tr&gt;&lt;td&gt;&lt;br&gt;&lt;/td&gt;&lt;td&gt;&lt;br&gt;&lt;/td&gt;&lt;/tr&gt;&lt;/tbody&gt;&lt;/table&gt;" style="verticalAlign=top;align=left;overflow=fill;html=1;rounded=0;shadow=0;comic=0;labelBackgroundColor=none;strokeWidth=0.5;fontFamily=Verdana;fontSize=12;fillColor=#f5f5f5;strokeColor=#666666;fontColor=#333333;glass=0;noLabel=0;portConstraint=none;labelPadding=0;strokeOpacity=100;perimeterSpacing=0;spacingTop=0;spacing=2;spacingLeft=0;labelBorderColor=#636e72;" parent="1" vertex="1">
                    <mxGeometry x="41" y="188" width="208" height="208" as="geometry"/>
                </mxCell>
                <mxCell id="TQXfzH1NdRfpT0izEi7H-4" style="edgeStyle=orthogonalEdgeStyle;html=1;dashed=1;labelBackgroundColor=none;startArrow=ERone;endArrow=ERoneToMany;fontFamily=Verdana;fontSize=12;align=left;endFill=0;startFill=0;strokeColor=#00B894;strokeWidth=1.5;entryX=0;entryY=0.25;entryDx=0;entryDy=0;exitX=1.005;exitY=0.141;exitDx=0;exitDy=0;exitPerimeter=0;" parent="1" target="_K73hZ6G-kw6GUNCctz3-10" edge="1" source="2ed32ef02a7f4228-8">
                    <mxGeometry relative="1" as="geometry">
                        <mxPoint x="335" y="172" as="sourcePoint"/>
                        <mxPoint x="331" y="296" as="targetPoint"/>
                        <Array as="points">
                            <mxPoint x="304" y="217"/>
                            <mxPoint x="304" y="156"/>
                        </Array>
                    </mxGeometry>
                </mxCell>
                <mxCell id="TQXfzH1NdRfpT0izEi7H-6" value="&lt;div style=&quot;box-sizing: border-box ; width: 100% ; background: #e4e4e4 ; padding: 2px&quot;&gt;review&lt;/div&gt;&lt;table style=&quot;width: 100% ; font-size: 1em&quot; cellpadding=&quot;2&quot; cellspacing=&quot;0&quot;&gt;&lt;tbody&gt;&lt;tr&gt;&lt;td&gt;&lt;br&gt;&lt;/td&gt;&lt;td&gt;&amp;nbsp; &amp;nbsp;logger_review&lt;br&gt;&lt;/td&gt;&lt;/tr&gt;&lt;tr&gt;&lt;td&gt;&lt;/td&gt;&lt;td&gt;&amp;nbsp; &amp;nbsp;logger_rating&lt;/td&gt;&lt;/tr&gt;&lt;tr&gt;&lt;td&gt;PK&lt;/td&gt;&lt;td&gt;&amp;nbsp; &amp;nbsp;review_date&lt;/td&gt;&lt;/tr&gt;&lt;/tbody&gt;&lt;/table&gt;" style="verticalAlign=top;align=left;overflow=fill;html=1;rounded=0;shadow=0;comic=0;labelBackgroundColor=none;strokeWidth=0.5;fontFamily=Verdana;fontSize=12;fillColor=#f5f5f5;strokeColor=#666666;fontColor=#333333;labelBorderColor=#636e72;" parent="1" vertex="1">
                    <mxGeometry x="600" y="239" width="208" height="75" as="geometry"/>
                </mxCell>
                <mxCell id="TQXfzH1NdRfpT0izEi7H-8" style="edgeStyle=orthogonalEdgeStyle;html=1;dashed=1;labelBackgroundColor=none;startArrow=ERone;endArrow=ERone;fontFamily=Verdana;fontSize=12;align=left;endFill=0;startFill=0;exitX=1;exitY=0.75;exitDx=0;exitDy=0;strokeColor=#00b894;strokeWidth=1.5;" parent="1" source="_K73hZ6G-kw6GUNCctz3-10" edge="1">
                    <mxGeometry relative="1" as="geometry">
                        <mxPoint x="501.33333333333326" y="137.28571428571428" as="sourcePoint"/>
                        <mxPoint x="600" y="304" as="targetPoint"/>
                        <Array as="points">
                            <mxPoint x="560" y="212"/>
                            <mxPoint x="560" y="303"/>
                        </Array>
                    </mxGeometry>
                </mxCell>
                <mxCell id="TQXfzH1NdRfpT0izEi7H-15" value="&lt;div style=&quot;box-sizing: border-box ; width: 100% ; background: #e4e4e4 ; padding: 2px&quot;&gt;record&lt;/div&gt;&lt;table style=&quot;width: 100% ; font-size: 1em&quot; cellpadding=&quot;2&quot; cellspacing=&quot;0&quot;&gt;&lt;tbody&gt;&lt;tr&gt;&lt;td&gt;PK, FK&lt;/td&gt;&lt;td&gt;&amp;nbsp; logger_username&lt;/td&gt;&lt;/tr&gt;&lt;tr&gt;&lt;td&gt;&lt;br&gt;&lt;/td&gt;&lt;td&gt;&amp;nbsp; record_date&lt;/td&gt;&lt;/tr&gt;&lt;tr&gt;&lt;td&gt;FK&lt;br&gt;&lt;/td&gt;&lt;td&gt;&amp;nbsp; type_id&lt;br&gt;&lt;/td&gt;&lt;/tr&gt;&lt;tr&gt;&lt;td&gt;&lt;br&gt;&lt;/td&gt;&lt;td&gt;&amp;nbsp; record_name&lt;/td&gt;&lt;/tr&gt;&lt;tr&gt;&lt;td&gt;&lt;br&gt;&lt;/td&gt;&lt;td&gt;&amp;nbsp; record_category&lt;/td&gt;&lt;/tr&gt;&lt;tr&gt;&lt;td&gt;FK&lt;/td&gt;&lt;td&gt;&amp;nbsp; record_entry_id&lt;/td&gt;&lt;/tr&gt;&lt;/tbody&gt;&lt;/table&gt;" style="verticalAlign=top;align=left;overflow=fill;html=1;rounded=0;shadow=0;comic=0;labelBackgroundColor=none;strokeWidth=0.5;fontFamily=Verdana;fontSize=12;fillColor=#f5f5f5;strokeColor=#666666;fontColor=#333333;labelBorderColor=#636e72;" parent="1" vertex="1">
                    <mxGeometry x="600" y="343.14" width="208" height="132.86" as="geometry"/>
                </mxCell>
                <mxCell id="TQXfzH1NdRfpT0izEi7H-17" style="edgeStyle=elbowEdgeStyle;html=1;dashed=1;labelBackgroundColor=none;startArrow=ERone;endArrow=ERone;fontFamily=Verdana;fontSize=12;align=left;endFill=0;startFill=0;strokeColor=#d63031;strokeWidth=1.5;exitX=0.999;exitY=0.878;exitDx=0;exitDy=0;exitPerimeter=0;entryX=1;entryY=0.25;entryDx=0;entryDy=0;" parent="1" source="_K73hZ6G-kw6GUNCctz3-7" edge="1" target="4">
                    <mxGeometry relative="1" as="geometry">
                        <mxPoint x="778.6666666666665" y="521.9285714285714" as="sourcePoint"/>
                        <mxPoint x="1103" y="436" as="targetPoint"/>
                        <Array as="points">
                            <mxPoint x="1129" y="585"/>
                        </Array>
                    </mxGeometry>
                </mxCell>
                <mxCell id="_K73hZ6G-kw6GUNCctz3-2" style="edgeStyle=orthogonalEdgeStyle;html=1;dashed=1;labelBackgroundColor=none;startArrow=ERone;endArrow=ERoneToMany;fontFamily=Verdana;fontSize=12;align=left;endFill=0;startFill=0;strokeColor=#ff7675;strokeWidth=1.5;exitX=1;exitY=0.25;exitDx=0;exitDy=0;entryX=0.001;entryY=0.29;entryDx=0;entryDy=0;entryPerimeter=0;" parent="1" source="_K73hZ6G-kw6GUNCctz3-10" target="2" edge="1">
                    <mxGeometry relative="1" as="geometry">
                        <mxPoint x="800" y="218" as="sourcePoint"/>
                        <mxPoint x="854" y="228" as="targetPoint"/>
                        <Array as="points">
                            <mxPoint x="875" y="156"/>
                        </Array>
                    </mxGeometry>
                </mxCell>
                <mxCell id="_K73hZ6G-kw6GUNCctz3-5" value="&lt;div style=&quot;box-sizing: border-box ; width: 100% ; background: #e4e4e4 ; padding: 2px&quot;&gt;conditions&lt;/div&gt;&lt;table style=&quot;width: 100% ; font-size: 1em&quot; cellpadding=&quot;2&quot; cellspacing=&quot;0&quot;&gt;&lt;tbody&gt;&lt;tr&gt;&lt;td&gt;PK&lt;/td&gt;&lt;td&gt;&lt;br&gt;&lt;/td&gt;&lt;td&gt;&lt;br&gt;&lt;/td&gt;&lt;td&gt;&lt;br&gt;&lt;/td&gt;&lt;td&gt;id&lt;/td&gt;&lt;/tr&gt;&lt;tr&gt;&lt;td&gt;&lt;br&gt;&lt;/td&gt;&lt;td&gt;&lt;br&gt;&lt;/td&gt;&lt;td&gt;&lt;br&gt;&lt;/td&gt;&lt;td&gt;&lt;br&gt;&lt;/td&gt;&lt;td&gt;condition_name&lt;/td&gt;&lt;/tr&gt;&lt;tr&gt;&lt;td&gt;&lt;br&gt;&lt;/td&gt;&lt;td&gt;&lt;br&gt;&lt;/td&gt;&lt;td&gt;&lt;br&gt;&lt;/td&gt;&lt;td&gt;&lt;br&gt;&lt;/td&gt;&lt;td&gt;condition_category&lt;/td&gt;&lt;/tr&gt;&lt;/tbody&gt;&lt;/table&gt;" style="verticalAlign=top;align=left;overflow=fill;html=1;rounded=0;shadow=0;comic=0;labelBackgroundColor=none;strokeWidth=0.5;fontFamily=Verdana;fontSize=12;fillColor=#f5f5f5;strokeColor=#666666;fontColor=#333333;labelBorderColor=#636e72;" parent="1" vertex="1">
                    <mxGeometry x="325" y="398" width="208" height="75" as="geometry"/>
                </mxCell>
                <mxCell id="_K73hZ6G-kw6GUNCctz3-6" value="&lt;div style=&quot;box-sizing: border-box ; width: 100% ; background: #e4e4e4 ; padding: 2px&quot;&gt;variables&lt;/div&gt;&lt;table style=&quot;width: 100% ; font-size: 1em&quot; cellpadding=&quot;2&quot; cellspacing=&quot;0&quot;&gt;&lt;tbody&gt;&lt;tr&gt;&lt;td&gt;PK&lt;/td&gt;&lt;td&gt;&lt;br&gt;&lt;/td&gt;&lt;td&gt;&lt;br&gt;&lt;/td&gt;&lt;td&gt;&lt;br&gt;&lt;/td&gt;&lt;td&gt;id&lt;/td&gt;&lt;/tr&gt;&lt;tr&gt;&lt;td&gt;&lt;br&gt;&lt;/td&gt;&lt;td&gt;&lt;br&gt;&lt;/td&gt;&lt;td&gt;&lt;br&gt;&lt;/td&gt;&lt;td&gt;&lt;br&gt;&lt;/td&gt;&lt;td&gt;variable_name&lt;/td&gt;&lt;/tr&gt;&lt;tr&gt;&lt;td&gt;&lt;br&gt;&lt;/td&gt;&lt;td&gt;&lt;br&gt;&lt;/td&gt;&lt;td&gt;&lt;br&gt;&lt;/td&gt;&lt;td&gt;&lt;br&gt;&lt;/td&gt;&lt;td&gt;variable_category&lt;/td&gt;&lt;/tr&gt;&lt;/tbody&gt;&lt;/table&gt;" style="verticalAlign=top;align=left;overflow=fill;html=1;rounded=0;shadow=0;comic=0;labelBackgroundColor=none;strokeWidth=0.5;fontFamily=Verdana;fontSize=12;fillColor=#f5f5f5;strokeColor=#666666;fontColor=#333333;labelBorderColor=#636e72;" parent="1" vertex="1">
                    <mxGeometry x="325" y="495" width="208" height="75" as="geometry"/>
                </mxCell>
                <mxCell id="_K73hZ6G-kw6GUNCctz3-7" value="&lt;div style=&quot;box-sizing: border-box ; width: 100% ; background: #e4e4e4 ; padding: 2px&quot;&gt;triggers&lt;/div&gt;&lt;table style=&quot;width: 100% ; font-size: 1em&quot; cellpadding=&quot;2&quot; cellspacing=&quot;0&quot;&gt;&lt;tbody&gt;&lt;tr&gt;&lt;td&gt;FK&lt;/td&gt;&lt;td&gt;&lt;br&gt;&lt;/td&gt;&lt;td&gt;logger_username&lt;/td&gt;&lt;/tr&gt;&lt;tr&gt;&lt;td&gt;&lt;br&gt;&lt;/td&gt;&lt;td&gt;&lt;br&gt;&lt;/td&gt;&lt;td&gt;trigger_condition&lt;/td&gt;&lt;/tr&gt;&lt;tr&gt;&lt;td&gt;&lt;br&gt;&lt;/td&gt;&lt;td&gt;&lt;br&gt;&lt;/td&gt;&lt;td&gt;trigger_variable&lt;/td&gt;&lt;/tr&gt;&lt;tr&gt;&lt;td&gt;PK, FK&lt;/td&gt;&lt;td&gt;&lt;br&gt;&lt;/td&gt;&lt;td&gt;trigger_id&lt;/td&gt;&lt;/tr&gt;&lt;/tbody&gt;&lt;/table&gt;" style="verticalAlign=top;align=left;overflow=fill;html=1;rounded=0;shadow=0;comic=0;labelBackgroundColor=none;strokeWidth=0.5;fontFamily=Verdana;fontSize=12;fillColor=#f5f5f5;strokeColor=#666666;fontColor=#333333;labelBorderColor=#636e72;" parent="1" vertex="1">
                    <mxGeometry x="601" y="625.14" width="208" height="95.86" as="geometry"/>
                </mxCell>
                <mxCell id="_K73hZ6G-kw6GUNCctz3-10" value="&lt;div style=&quot;box-sizing: border-box ; width: 100% ; background: #e4e4e4 ; padding: 2px&quot;&gt;logger_service&lt;/div&gt;&lt;table style=&quot;width: 100% ; font-size: 1em&quot; cellpadding=&quot;2&quot; cellspacing=&quot;0&quot;&gt;&lt;tbody&gt;&lt;tr&gt;&lt;td&gt;FK&lt;/td&gt;&lt;td&gt;&amp;nbsp; &amp;nbsp;username&lt;/td&gt;&lt;/tr&gt;&lt;tr&gt;&lt;td&gt;FK&lt;/td&gt;&lt;td&gt;&amp;nbsp; &amp;nbsp;associated_username&lt;/td&gt;&lt;/tr&gt;&lt;tr&gt;&lt;td&gt;&lt;br&gt;&lt;/td&gt;&lt;td&gt;&amp;nbsp; &amp;nbsp;status&lt;/td&gt;&lt;/tr&gt;&lt;tr&gt;&lt;td&gt;PK, FK&lt;/td&gt;&lt;td&gt;&amp;nbsp; &amp;nbsp;review_date&lt;/td&gt;&lt;/tr&gt;&lt;tr&gt;&lt;td&gt;&lt;br&gt;&lt;/td&gt;&lt;td&gt;&amp;nbsp; &amp;nbsp;&lt;/td&gt;&lt;/tr&gt;&lt;/tbody&gt;&lt;/table&gt;" style="verticalAlign=top;align=left;overflow=fill;html=1;rounded=0;shadow=0;comic=0;labelBackgroundColor=none;strokeWidth=0.5;fontFamily=Verdana;fontSize=12;fillColor=#f5f5f5;strokeColor=#666666;fontColor=#333333;labelBorderColor=#636e72;" parent="1" vertex="1">
                    <mxGeometry x="325" y="128" width="208" height="112" as="geometry"/>
                </mxCell>
                <mxCell id="_K73hZ6G-kw6GUNCctz3-11" style="edgeStyle=orthogonalEdgeStyle;html=1;dashed=1;labelBackgroundColor=none;startArrow=ERone;endArrow=ERoneToMany;fontFamily=Verdana;fontSize=12;align=left;endFill=0;startFill=0;strokeColor=#6c5ce7;strokeWidth=1.5;entryX=-0.004;entryY=0.212;entryDx=0;entryDy=0;entryPerimeter=0;exitX=1.008;exitY=0.138;exitDx=0;exitDy=0;exitPerimeter=0;" parent="1" source="2ed32ef02a7f4228-8" target="TQXfzH1NdRfpT0izEi7H-15" edge="1">
                    <mxGeometry relative="1" as="geometry">
                        <mxPoint x="316" y="190" as="sourcePoint"/>
                        <mxPoint x="568.8320000000001" y="370.79999999999995" as="targetPoint"/>
                        <Array as="points">
                            <mxPoint x="288" y="217"/>
                            <mxPoint x="286" y="216"/>
                            <mxPoint x="286" y="371"/>
                        </Array>
                    </mxGeometry>
                </mxCell>
                <mxCell id="_K73hZ6G-kw6GUNCctz3-14" style="edgeStyle=orthogonalEdgeStyle;html=1;dashed=1;labelBackgroundColor=none;startArrow=ERone;endArrow=ERoneToMany;fontFamily=Verdana;fontSize=12;align=left;endFill=0;startFill=0;strokeColor=#6c5ce7;strokeWidth=1.5;exitX=1.004;exitY=0.138;exitDx=0;exitDy=0;exitPerimeter=0;entryX=-0.002;entryY=0.307;entryDx=0;entryDy=0;entryPerimeter=0;" parent="1" source="2ed32ef02a7f4228-8" target="_K73hZ6G-kw6GUNCctz3-7" edge="1">
                    <mxGeometry relative="1" as="geometry">
                        <mxPoint x="495" y="457" as="sourcePoint"/>
                        <mxPoint x="561" y="637" as="targetPoint"/>
                        <Array as="points">
                            <mxPoint x="271" y="217"/>
                            <mxPoint x="271" y="655"/>
                        </Array>
                    </mxGeometry>
                </mxCell>
                <mxCell id="_K73hZ6G-kw6GUNCctz3-15" style="edgeStyle=orthogonalEdgeStyle;html=1;dashed=1;labelBackgroundColor=none;startArrow=ERone;endArrow=ERone;fontFamily=Verdana;fontSize=12;align=left;endFill=0;startFill=0;exitX=1.006;exitY=0.392;exitDx=0;exitDy=0;strokeColor=#636e72;strokeWidth=1.5;exitPerimeter=0;entryX=0;entryY=0.48;entryDx=0;entryDy=0;entryPerimeter=0;" parent="1" source="_K73hZ6G-kw6GUNCctz3-5" target="TQXfzH1NdRfpT0izEi7H-15" edge="1">
                    <mxGeometry relative="1" as="geometry">
                        <mxPoint x="786" y="398" as="sourcePoint"/>
                        <mxPoint x="875" y="408" as="targetPoint"/>
                        <Array as="points">
                            <mxPoint x="560" y="427"/>
                            <mxPoint x="560" y="407"/>
                        </Array>
                    </mxGeometry>
                </mxCell>
                <mxCell id="_K73hZ6G-kw6GUNCctz3-20" style="edgeStyle=orthogonalEdgeStyle;html=1;dashed=1;labelBackgroundColor=none;startArrow=ERone;endArrow=ERone;fontFamily=Verdana;fontSize=12;align=left;endFill=0;startFill=0;strokeColor=#636e72;strokeWidth=1.5;exitX=1.001;exitY=0.339;exitDx=0;exitDy=0;exitPerimeter=0;entryX=0.003;entryY=0.479;entryDx=0;entryDy=0;entryPerimeter=0;" parent="1" source="_K73hZ6G-kw6GUNCctz3-6" target="TQXfzH1NdRfpT0izEi7H-15" edge="1">
                    <mxGeometry relative="1" as="geometry">
                        <mxPoint x="783" y="548" as="sourcePoint"/>
                        <mxPoint x="855" y="435" as="targetPoint"/>
                        <Array as="points">
                            <mxPoint x="560" y="520"/>
                            <mxPoint x="560" y="407"/>
                        </Array>
                    </mxGeometry>
                </mxCell>
                <mxCell id="2" value="&lt;div style=&quot;box-sizing: border-box ; width: 100% ; background: #e4e4e4 ; padding: 2px&quot;&gt;comment&lt;/div&gt;&lt;table style=&quot;width: 100% ; font-size: 1em&quot; cellpadding=&quot;2&quot; cellspacing=&quot;0&quot;&gt;&lt;tbody&gt;&lt;tr&gt;&lt;td&gt;FK&lt;/td&gt;&lt;td&gt;&amp;nbsp; &amp;nbsp;servicer_username&lt;/td&gt;&lt;/tr&gt;&lt;tr&gt;&lt;td&gt;&lt;br&gt;&lt;/td&gt;&lt;td&gt;&amp;nbsp; &amp;nbsp;servicer_comment&lt;/td&gt;&lt;/tr&gt;&lt;tr&gt;&lt;td&gt;&lt;br&gt;&lt;/td&gt;&lt;td&gt;&amp;nbsp; &amp;nbsp;servicer_response&lt;br&gt;&lt;/td&gt;&lt;/tr&gt;&lt;tr&gt;&lt;td&gt;FK&lt;/td&gt;&lt;td&gt;&amp;nbsp; &amp;nbsp;record_entry_id&lt;/td&gt;&lt;/tr&gt;&lt;/tbody&gt;&lt;/table&gt;" style="verticalAlign=top;align=left;overflow=fill;html=1;rounded=0;shadow=0;comic=0;labelBackgroundColor=none;strokeWidth=0.5;fontFamily=Verdana;fontSize=12;fillColor=#f5f5f5;strokeColor=#666666;fontColor=#333333;labelBorderColor=#636e72;" parent="1" vertex="1">
                    <mxGeometry x="875" y="127" width="208" height="98" as="geometry"/>
                </mxCell>
                <mxCell id="4" value="&lt;div style=&quot;box-sizing: border-box ; width: 100% ; background: #e4e4e4 ; padding: 2px&quot;&gt;record_entry&lt;/div&gt;&lt;table style=&quot;width: 100% ; font-size: 1em&quot; cellpadding=&quot;2&quot; cellspacing=&quot;0&quot;&gt;&lt;tbody&gt;&lt;tr&gt;&lt;td&gt;PK&lt;/td&gt;&lt;td&gt;&lt;br&gt;&lt;/td&gt;&lt;td&gt;&amp;nbsp; &amp;nbsp;id&lt;/td&gt;&lt;/tr&gt;&lt;tr&gt;&lt;td&gt;&lt;br&gt;&lt;/td&gt;&lt;td&gt;&lt;br&gt;&lt;/td&gt;&lt;td&gt;&amp;nbsp; &amp;nbsp;entry_title&lt;/td&gt;&lt;/tr&gt;&lt;tr&gt;&lt;td&gt;&lt;br&gt;&lt;/td&gt;&lt;td&gt;&lt;br&gt;&lt;/td&gt;&lt;td&gt;&amp;nbsp; &amp;nbsp;entry_item&lt;br&gt;&lt;/td&gt;&lt;/tr&gt;&lt;tr&gt;&lt;td&gt;&lt;/td&gt;&lt;td&gt;&lt;br&gt;&lt;/td&gt;&lt;td&gt;&amp;nbsp; &amp;nbsp;entry_image&lt;/td&gt;&lt;/tr&gt;&lt;tr&gt;&lt;td&gt;&lt;br&gt;&lt;/td&gt;&lt;td&gt;&lt;br&gt;&lt;/td&gt;&lt;td&gt;&amp;nbsp; &amp;nbsp;trigger_tag&lt;/td&gt;&lt;/tr&gt;&lt;/tbody&gt;&lt;/table&gt;" style="verticalAlign=top;align=left;overflow=fill;html=1;rounded=0;shadow=0;comic=0;labelBackgroundColor=none;strokeWidth=0.5;fontFamily=Verdana;fontSize=12;fillColor=#f5f5f5;strokeColor=#666666;fontColor=#333333;labelBorderColor=#636e72;" parent="1" vertex="1">
                    <mxGeometry x="875" y="433" width="208" height="114" as="geometry"/>
                </mxCell>
                <mxCell id="6" style="edgeStyle=orthogonalEdgeStyle;html=1;dashed=1;labelBackgroundColor=none;startArrow=ERoneToMany;endArrow=ERone;fontFamily=Verdana;fontSize=12;align=left;endFill=0;startFill=0;strokeColor=#FF7675;strokeWidth=1.5;exitX=1.007;exitY=0.845;exitDx=0;exitDy=0;exitPerimeter=0;entryX=1.009;entryY=0.249;entryDx=0;entryDy=0;entryPerimeter=0;" parent="1" source="2" target="4" edge="1">
                    <mxGeometry relative="1" as="geometry">
                        <mxPoint x="787.998" y="601.785" as="sourcePoint"/>
                        <mxPoint x="1102" y="504" as="targetPoint"/>
                        <Array as="points">
                            <mxPoint x="1130" y="210"/>
                            <mxPoint x="1130" y="461"/>
                            <mxPoint x="1085" y="461"/>
                        </Array>
                    </mxGeometry>
                </mxCell>
                <mxCell id="7" style="edgeStyle=orthogonalEdgeStyle;html=1;dashed=1;labelBackgroundColor=none;startArrow=ERone;endArrow=ERoneToMany;fontFamily=Verdana;fontSize=12;align=left;endFill=0;startFill=0;strokeColor=#E84393;strokeWidth=1.5;exitX=0.996;exitY=0.889;exitDx=0;exitDy=0;exitPerimeter=0;" parent="1" source="TQXfzH1NdRfpT0izEi7H-15" edge="1">
                    <mxGeometry relative="1" as="geometry">
                        <mxPoint x="1094.4559999999997" y="303.80999999999995" as="sourcePoint"/>
                        <mxPoint x="875" y="461" as="targetPoint"/>
                        <Array as="points">
                            <mxPoint x="840" y="461"/>
                            <mxPoint x="875" y="461"/>
                        </Array>
                    </mxGeometry>
                </mxCell>
            </root>
        </mxGraphModel>
    </diagram>
</mxfile>